<svg width="24" height="25" viewBox="0 0 24 25" fill="none" xmlns="http://www.w3.org/2000/svg">
<path d="M3.5 4.5C3.5 3.67157 4.17157 3 5 3H19C19.8284 3 20.5 3.67157 20.5 4.5V17.2196L12 22.414L3.5 17.2196V4.5Z" stroke="#4E4445"/>
<path fill-rule="evenodd" clip-rule="evenodd" d="M13.768 8.23168L12 6.5L10.232 8.23168L7.75736 8.25736L7.73168 10.732L6 12.5L7.73168 14.268L7.75736 16.7426L10.232 16.7683L12 18.5L13.768 16.7683L16.2426 16.7426L16.2683 14.268L18 12.5L16.2683 10.732L16.2426 8.25736L13.768 8.23168ZM12 14.9C13.3255 14.9 14.4 13.8255 14.4 12.5C14.4 11.1745 13.3255 10.1 12 10.1C10.6745 10.1 9.6 11.1745 9.6 12.5C9.6 13.8255 10.6745 14.9 12 14.9Z" fill="#D9886B"/>
</svg>
