<svg width="24" height="25" viewBox="0 0 24 25" fill="none" xmlns="http://www.w3.org/2000/svg">
<path d="M8.65625 7.01515C8.65625 5.34993 10.0062 4 11.6714 4H12.3288C13.994 4 15.3439 5.34993 15.3439 7.01515V12.0028H8.65625V7.01515Z" stroke="url(#paint0_linear)"/>
<path d="M5.76687 8.3717H18.8013L21.0341 17.0368C21.5233 18.9354 20.0896 20.7854 18.129 20.7854H6.04542C4.03188 20.7854 2.59 18.8411 3.17467 16.9143L5.76687 8.3717Z" fill="url(#paint1_linear)"/>
<path fill-rule="evenodd" clip-rule="evenodd" d="M8.46762 11.6894C7.68657 12.4705 7.68657 13.7368 8.46762 14.5179L9.17139 15.2216L9.16806 15.225L11.9965 18.0534L11.9998 18.05L12.0032 18.0534L14.8316 15.225L14.8282 15.2216L15.532 14.5179C16.3131 13.7368 16.3131 12.4705 15.532 11.6894C14.751 10.9084 13.4846 10.9084 12.7036 11.6894L11.9998 12.3932L11.296 11.6894C10.515 10.9084 9.24867 10.9084 8.46762 11.6894Z" fill="url(#paint2_linear)"/>
<defs>
<linearGradient id="paint0_linear" x1="8.15625" y1="12.5028" x2="15.8439" y2="12.5028" gradientUnits="userSpaceOnUse">
<stop stop-color="#D9896A"/>
<stop offset="1" stop-color="#945439"/>
</linearGradient>
<linearGradient id="paint1_linear" x1="2" y1="20.7854" x2="22" y2="20.7854" gradientUnits="userSpaceOnUse">
<stop stop-color="#D9896A"/>
<stop offset="1" stop-color="#945439"/>
</linearGradient>
<linearGradient id="paint2_linear" x1="7.95674" y1="11.1036" x2="16.043" y2="11.1036" gradientUnits="userSpaceOnUse">
<stop stop-color="#553D33"/>
<stop offset="1" stop-color="#1E140D"/>
</linearGradient>
</defs>
</svg>
