<svg width="24" height="24" viewBox="0 0 24 24" fill="none" xmlns="http://www.w3.org/2000/svg">
<path d="M12.124 17.164C10.6493 17.164 9.42667 16.6787 8.456 15.708C7.48533 14.7187 7 13.51 7 12.082C7 10.6447 7.48533 9.44067 8.456 8.47C9.41733 7.49 10.64 7 12.124 7C13.0107 7 13.8273 7.21 14.574 7.63C15.33 8.05 15.918 8.61933 16.338 9.338L14.938 10.15C14.6767 9.66467 14.294 9.282 13.79 9.002C13.2953 8.71267 12.74 8.568 12.124 8.568C11.088 8.568 10.2387 8.89933 9.576 9.562C8.932 10.2153 8.61 11.0553 8.61 12.082C8.61 13.1087 8.932 13.9487 9.576 14.602C10.2387 15.2647 11.088 15.596 12.124 15.596C12.74 15.596 13.3 15.456 13.804 15.176C14.308 14.8867 14.686 14.4993 14.938 14.014L16.338 14.812C15.9367 15.5213 15.3533 16.0953 14.588 16.534C13.8507 16.954 13.0293 17.164 12.124 17.164Z" fill="#D58A6D"/>
<rect x="1" y="1" width="22" height="22" rx="11" stroke="#584D51"/>
</svg>
