<svg width="59" height="59" viewBox="0 0 59 59" fill="none" xmlns="http://www.w3.org/2000/svg">
<g filter="url(#filter0_ii)">
<rect x="0.5" width="58" height="59" rx="29" fill="#212426"/>
<path fill-rule="evenodd" clip-rule="evenodd" d="M18.2857 36.5C18.2857 39.1036 20.3964 41.2143 23 41.2143C25.6036 41.2143 27.7143 39.1036 27.7143 36.5C27.7143 33.8964 25.6036 31.7857 23 31.7857C20.3964 31.7857 18.2857 33.8964 18.2857 36.5ZM23 31C19.9624 31 17.5 33.4624 17.5 36.5C17.5 39.5376 19.9624 42 23 42C26.0376 42 28.5 39.5376 28.5 36.5C28.5 33.4624 26.0376 31 23 31Z" fill="#D9886A"/>
<path d="M17.5 22.5C17.5 19.4624 19.9624 17 23 17C26.0376 17 28.5 19.4624 28.5 22.5C28.5 25.5376 26.0376 28 23 28C19.9624 28 17.5 25.5376 17.5 22.5Z" fill="#D9886A"/>
<path d="M31.5 22.5C31.5 19.4624 33.9624 17 37 17C40.0376 17 42.5 19.4624 42.5 22.5C42.5 25.5376 40.0376 28 37 28C33.9624 28 31.5 25.5376 31.5 22.5Z" fill="#774C3B"/>
<path d="M31.5 36.5C31.5 33.4624 33.9624 31 37 31C40.0376 31 42.5 33.4624 42.5 36.5C42.5 39.5376 40.0376 42 37 42C33.9624 42 31.5 39.5376 31.5 36.5Z" fill="#D9886A"/>
</g>
<defs>
<filter id="filter0_ii" x="-3.5" y="-4" width="66" height="67" filterUnits="userSpaceOnUse" color-interpolation-filters="sRGB">
<feFlood flood-opacity="0" result="BackgroundImageFix"/>
<feBlend mode="normal" in="SourceGraphic" in2="BackgroundImageFix" result="shape"/>
<feColorMatrix in="SourceAlpha" type="matrix" values="0 0 0 0 0 0 0 0 0 0 0 0 0 0 0 0 0 0 127 0" result="hardAlpha"/>
<feOffset dx="4" dy="4"/>
<feGaussianBlur stdDeviation="6"/>
<feComposite in2="hardAlpha" operator="arithmetic" k2="-1" k3="1"/>
<feColorMatrix type="matrix" values="0 0 0 0 0 0 0 0 0 0 0 0 0 0 0 0 0 0 0.32 0"/>
<feBlend mode="normal" in2="shape" result="effect1_innerShadow"/>
<feColorMatrix in="SourceAlpha" type="matrix" values="0 0 0 0 0 0 0 0 0 0 0 0 0 0 0 0 0 0 127 0" result="hardAlpha"/>
<feOffset dx="-4" dy="-4"/>
<feGaussianBlur stdDeviation="4"/>
<feComposite in2="hardAlpha" operator="arithmetic" k2="-1" k3="1"/>
<feColorMatrix type="matrix" values="0 0 0 0 1 0 0 0 0 1 0 0 0 0 1 0 0 0 0.02 0"/>
<feBlend mode="normal" in2="effect1_innerShadow" result="effect2_innerShadow"/>
</filter>
</defs>
</svg>
