<svg width="58" height="59" viewBox="0 0 58 59" fill="none" xmlns="http://www.w3.org/2000/svg">
<g filter="url(#filter0_ii)">
<rect width="58" height="59" rx="29" fill="#212426"/>
<path d="M16.9688 25.4897L29 16.1321L41.0312 25.4897V40.1946C41.0312 40.9037 40.7496 41.5837 40.2482 42.0851C39.7468 42.5865 39.0667 42.8682 38.3576 42.8682H19.6424C18.9333 42.8682 18.2532 42.5865 17.7518 42.0851C17.2504 41.5837 16.9688 40.9037 16.9688 40.1946V25.4897Z" fill="url(#paint0_linear)"/>
<path d="M25.9187 31.2987C25.9187 30.1941 26.8141 29.2987 27.9187 29.2987H30.5187C31.6233 29.2987 32.5187 30.1941 32.5187 31.2987V38.4471H25.9187V31.2987Z" fill="url(#paint1_linear)"/>
</g>
<defs>
<filter id="filter0_ii" x="-4" y="-4" width="66" height="67" filterUnits="userSpaceOnUse" color-interpolation-filters="sRGB">
<feFlood flood-opacity="0" result="BackgroundImageFix"/>
<feBlend mode="normal" in="SourceGraphic" in2="BackgroundImageFix" result="shape"/>
<feColorMatrix in="SourceAlpha" type="matrix" values="0 0 0 0 0 0 0 0 0 0 0 0 0 0 0 0 0 0 127 0" result="hardAlpha"/>
<feOffset dx="4" dy="4"/>
<feGaussianBlur stdDeviation="6"/>
<feComposite in2="hardAlpha" operator="arithmetic" k2="-1" k3="1"/>
<feColorMatrix type="matrix" values="0 0 0 0 0 0 0 0 0 0 0 0 0 0 0 0 0 0 0.32 0"/>
<feBlend mode="normal" in2="shape" result="effect1_innerShadow"/>
<feColorMatrix in="SourceAlpha" type="matrix" values="0 0 0 0 0 0 0 0 0 0 0 0 0 0 0 0 0 0 127 0" result="hardAlpha"/>
<feOffset dx="-4" dy="-4"/>
<feGaussianBlur stdDeviation="4"/>
<feComposite in2="hardAlpha" operator="arithmetic" k2="-1" k3="1"/>
<feColorMatrix type="matrix" values="0 0 0 0 1 0 0 0 0 1 0 0 0 0 1 0 0 0 0.02 0"/>
<feBlend mode="normal" in2="effect1_innerShadow" result="effect2_innerShadow"/>
</filter>
<linearGradient id="paint0_linear" x1="29" y1="16.1321" x2="29" y2="42.8682" gradientUnits="userSpaceOnUse">
<stop stop-color="#D9896A"/>
<stop offset="1" stop-color="#945439"/>
</linearGradient>
<linearGradient id="paint1_linear" x1="29.2187" y1="29.2987" x2="29.2187" y2="38.4471" gradientUnits="userSpaceOnUse">
<stop stop-color="#4F372D"/>
<stop offset="1" stop-color="#24170F"/>
</linearGradient>
</defs>
</svg>
